<svg xmlns="http://www.w3.org/2000/svg" xmlns:xlink="http://www.w3.org/1999/xlink" id="Layer_1" x="0" y="0" version="1.1" viewBox="0 0 1000 1000" xml:space="preserve" style="enable-background:new 0 0 1000 1000"><style type="text/css">.st0{stroke-miterlimit:10}.st0,.st1{fill:none;stroke:#fff}.st2{font-family:&apos;SegoeUI-Light&apos;}.st3{font-size:102.3479px}.st4{letter-spacing:3.94}</style><g><rect width="999" height="999" x=".5" y=".5"/><path d="M999,1v998H1V1H999 M1000,0H0v1000h1000V0L1000,0z"/></g><g><g><line x1="431.2" x2="433.55" y1="496.57" y2="101.25" class="st0"/><line x1="526.42" x2="528.76" y1="497.12" y2="101.8" class="st0"/><line x1="582.47" x2="575.5" y1="416.5" y2="61.5" class="st0"/><line x1="575.08" x2="528.5" y1="61.94" y2="101.5" class="st0"/><line x1="476.91" x2="432.37" y1="61.94" y2="101.25" class="st0"/><line x1="528.76" x2="432.37" y1="101.8" y2="101.25" class="st0"/><line x1="476.91" x2="575.08" y1="61.94" y2="61.94" class="st0"/><line x1="582.47" x2="900.48" y1="416.5" y2="657.18" class="st0"/><line x1="526.5" x2="842.51" y1="497.5" y2="731.67" class="st0"/><line x1="575.08" x2="846.5" y1="591.69" y2="792.5" class="st0"/><line x1="846.73" x2="841.88" y1="792.15" y2="733.4" class="st0"/><line x1="906.04" x2="901.19" y1="715" y2="656.26" class="st0"/><line x1="842.51" x2="901.19" y1="731.67" y2="656.26" class="st0"/><line x1="906.04" x2="846.73" y1="715" y2="792.15" class="st0"/><line x1="500.5" x2="527.01" y1="637.5" y2="723.82" class="st0"/><line x1="590.35" x2="624.26" y1="603.6" y2="717.83" class="st0"/><line x1="624.26" x2="525.9" y1="717.83" y2="724.17" class="st0"/><line x1="575.08" x2="203.79" y1="591.69" y2="809.68" class="st0"/><line x1="526.42" x2="153.14" y1="497.12" y2="730.16" class="st0"/><line x1="431.5" x2="94.5" y1="496.5" y2="713.5" class="st0"/><line x1="94.18" x2="151.71" y1="713.02" y2="728.98" class="st0"/><line x1="146.88" x2="204.41" y1="794.7" y2="810.65" class="st0"/><line x1="153.14" x2="204.41" y1="730.16" y2="810.65" class="st0"/><line x1="146.88" x2="94.18" y1="794.7" y2="713.02" class="st0"/><line x1="624.26" x2="641.48" y1="717.83" y2="641.95" class="st0"/></g><text class="st1 st2 st3 st4" transform="matrix(1.014 0 0 1 328.7881 897.4766)">DOLOS</text></g></svg>