<svg xmlns="http://www.w3.org/2000/svg" xmlns:xlink="http://www.w3.org/1999/xlink" id="Layer_1" x="0" y="0" version="1.1" viewBox="0 0 1000 1000" xml:space="preserve" style="enable-background:new 0 0 1000 1000"><style type="text/css">.st0{fill:none;stroke:#000;stroke-miterlimit:10}.st1{font-family:&apos;SegoeUI-Light&apos;}.st2{font-size:108.1086px}.st3{letter-spacing:3.96}</style><g><g><line x1="427.52" x2="429.99" y1="496.38" y2="78.8" class="st0"/><line x1="527.83" x2="530.3" y1="496.96" y2="79.38" class="st0"/><line x1="586.88" x2="579.5" y1="411.8" y2="37.5" class="st0"/><line x1="579.09" x2="530.5" y1="37.29" y2="79.5" class="st0"/><line x1="475.68" x2="428.76" y1="37.29" y2="78.8" class="st0"/><line x1="530.3" x2="428.76" y1="79.38" y2="78.8" class="st0"/><line x1="475.68" x2="579.09" y1="37.29" y2="37.29" class="st0"/><line x1="586.88" x2="921.89" y1="411.8" y2="666.02" class="st0"/><line x1="527.5" x2="860.82" y1="496.5" y2="744.71" class="st0"/><line x1="579.09" x2="865.5" y1="596.85" y2="808.5" class="st0"/><line x1="865.26" x2="862.5" y1="808.59" y2="742.5" class="st0"/><line x1="927.74" x2="922.63" y1="727.1" y2="665.05" class="st0"/><line x1="860.82" x2="922.63" y1="744.71" y2="665.05" class="st0"/><line x1="927.74" x2="865.26" y1="727.1" y2="808.59" class="st0"/><line x1="500.5" x2="528.46" y1="644.5" y2="736.41" class="st0"/><line x1="595.18" x2="630.9" y1="609.43" y2="730.09" class="st0"/><line x1="630.9" x2="527.28" y1="730.09" y2="736.78" class="st0"/><line x1="579.09" x2="187.95" y1="596.85" y2="827.11" class="st0"/><line x1="527.83" x2="134.6" y1="496.96" y2="743.11" class="st0"/><line x1="427.5" x2="72.5" y1="496.5" y2="725.5" class="st0"/><line x1="72.49" x2="134.5" y1="725.01" y2="743.5" class="st0"/><line x1="128.01" x2="188.61" y1="811.28" y2="828.14" class="st0"/><line x1="134.6" x2="188.61" y1="743.11" y2="828.14" class="st0"/><line x1="128.01" x2="72.49" y1="811.28" y2="725.01" class="st0"/><line x1="630.9" x2="649.05" y1="730.09" y2="649.94" class="st0"/></g><text class="st1 st2 st3" transform="matrix(1.0112 0 0 1 319.636 919.8486)">DOLOS</text></g></svg>